<svg width="15" height="15" viewBox="0 0 15 15" fill="none" xmlns="http://www.w3.org/2000/svg">
<path d="M12.1433 13.6243H5.61936C5.38874 13.624 5.16762 13.5323 5.00454 13.3692C4.84146 13.2061 4.74974 12.985 4.74951 12.7544V10.1448H5.61936V12.7544H12.1433V3.18602H8.22892V2.31616H12.1433C12.3739 2.31639 12.595 2.40811 12.7581 2.57119C12.9212 2.73427 13.0129 2.95539 13.0131 3.18602V12.7544C13.0129 12.985 12.9212 13.2061 12.7581 13.3692C12.595 13.5323 12.3739 13.624 12.1433 13.6243Z" fill="#7B97BE"/>
<path d="M8.229 4.92572H11.2735V5.79557H8.229V4.92572Z" fill="#7B97BE"/>
<path d="M7.79419 7.10037H11.2736V7.97023H7.79419V7.10037Z" fill="#7B97BE"/>
<path d="M7.35913 9.27499H11.2735V10.1448H7.35913V9.27499Z" fill="#7B97BE"/>
<path d="M4.74958 8.84007C4.17301 8.83949 3.62022 8.6102 3.21252 8.2025C2.80482 7.7948 2.57553 7.24201 2.57495 6.66544V1.88125H3.4448V6.66544C3.4448 7.01149 3.58227 7.34336 3.82697 7.58806C4.07166 7.83275 4.40353 7.97022 4.74958 7.97022C5.09563 7.97022 5.42751 7.83275 5.6722 7.58806C5.9169 7.34336 6.05436 7.01149 6.05436 6.66544V2.7511C6.05436 2.63575 6.00854 2.52512 5.92698 2.44356C5.84541 2.362 5.73479 2.31617 5.61944 2.31617C5.50409 2.31617 5.39346 2.362 5.3119 2.44356C5.23033 2.52512 5.18451 2.63575 5.18451 2.7511V7.10036H4.31466V2.7511C4.31466 2.40505 4.45212 2.07317 4.69682 1.82848C4.94151 1.58379 5.27339 1.44632 5.61944 1.44632C5.96549 1.44632 6.29736 1.58379 6.54205 1.82848C6.78675 2.07317 6.92422 2.40505 6.92422 2.7511V6.66544C6.92364 7.24201 6.69434 7.7948 6.28664 8.2025C5.87895 8.6102 5.32616 8.83949 4.74958 8.84007Z" fill="#7B97BE"/>
</svg>
