<svg width="13" height="14" viewBox="0 0 13 14" fill="none" xmlns="http://www.w3.org/2000/svg">
<path d="M12.9882 7.00001C12.9882 6.15646 12.822 5.32117 12.4992 4.54183C12.1764 3.76249 11.7032 3.05437 11.1068 2.45789C10.5103 1.86141 9.80216 1.38825 9.02282 1.06544C8.24348 0.742627 7.40819 0.576477 6.56464 0.576477C5.72109 0.576477 4.8858 0.742627 4.10646 1.06544C3.32713 1.38825 2.619 1.86141 2.02252 2.45789C1.42604 3.05437 0.952888 3.76249 0.630075 4.54183C0.307263 5.32117 0.141113 6.15646 0.141113 7.00001C0.141113 8.70363 0.817876 10.3375 2.02252 11.5421C3.22717 12.7468 4.86102 13.4235 6.56464 13.4235C8.26827 13.4235 9.90212 12.7468 11.1068 11.5421C12.3114 10.3375 12.9882 8.70363 12.9882 7.00001ZM1.2117 7.00001C1.2117 5.58032 1.77567 4.21878 2.77954 3.21491C3.78341 2.21103 5.14495 1.64707 6.56464 1.64707C7.98433 1.64707 9.34587 2.21103 10.3497 3.21491C11.3536 4.21878 11.9176 5.58032 11.9176 7.00001C11.9176 8.41969 11.3536 9.78124 10.3497 10.7851C9.34587 11.789 7.98433 12.3529 6.56464 12.3529C5.14495 12.3529 3.78341 11.789 2.77954 10.7851C1.77567 9.78124 1.2117 8.41969 1.2117 7.00001Z" fill="#7B97BE"/>
</svg>
