<svg width="42" height="52" viewBox="0 0 42 52" fill="none" xmlns="http://www.w3.org/2000/svg">
<path d="M21.0002 0.166656C13.8779 0.166656 8.0835 5.96107 8.0835 13.0833V18.25H5.50016C2.65075 18.25 0.333496 20.5672 0.333496 23.4167V46.6667C0.333496 49.5161 2.65075 51.8333 5.50016 51.8333H36.5002C39.3496 51.8333 41.6668 49.5161 41.6668 46.6667V23.4167C41.6668 20.5672 39.3496 18.25 36.5002 18.25H33.9168V13.0833C33.9168 5.96107 28.1224 0.166656 21.0002 0.166656ZM13.2502 13.0833C13.2502 8.81049 16.7273 5.33332 21.0002 5.33332C25.273 5.33332 28.7502 8.81049 28.7502 13.0833V18.25H13.2502V13.0833ZM36.5053 46.6667H23.5835V40.7818C25.1206 39.8854 26.1668 38.2372 26.1668 36.3333C26.1668 33.4839 23.8496 31.1667 21.0002 31.1667C18.1507 31.1667 15.8335 33.4839 15.8335 36.3333C15.8335 38.2347 16.8797 39.8854 18.4168 40.7818V46.6667H5.50016V23.4167H36.5002L36.5053 46.6667Z" fill="#3D3D3D"/>
</svg>
