<svg width="24" height="24" viewBox="0 0 24 24" fill="none" xmlns="http://www.w3.org/2000/svg">
<path d="M18 4H6.5C5 4 2 5 2 8C2 11 5 12 6.5 12H17.5C19 12 22 13 22 16C22 19 19 20 17.5 20H6" stroke="#2F88FF" stroke-width="2.2" stroke-linecap="round" stroke-linejoin="round"/>
<path d="M20 6C20.5304 6 21.0391 5.78929 21.4142 5.41421C21.7893 5.03914 22 4.53043 22 4C22 3.46957 21.7893 2.96086 21.4142 2.58579C21.0391 2.21071 20.5304 2 20 2C19.4696 2 18.9609 2.21071 18.5858 2.58579C18.2107 2.96086 18 3.46957 18 4C18 4.53043 18.2107 5.03914 18.5858 5.41421C18.9609 5.78929 19.4696 6 20 6V6ZM4 22C4.53043 22 5.03914 21.7893 5.41421 21.4142C5.78929 21.0391 6 20.5304 6 20C6 19.4696 5.78929 18.9609 5.41421 18.5858C5.03914 18.2107 4.53043 18 4 18C3.46957 18 2.96086 18.2107 2.58579 18.5858C2.21071 18.9609 2 19.4696 2 20C2 20.5304 2.21071 21.0391 2.58579 21.4142C2.96086 21.7893 3.46957 22 4 22V22Z" stroke="#2F88FF" stroke-width="2.2" stroke-linejoin="round"/>
</svg>
