<svg width="57" height="41" viewBox="0 0 57 41" fill="none" xmlns="http://www.w3.org/2000/svg">
<path d="M14.6171 3.11334C14.5959 1.79833 15.7489 0.610452 17.0726 0.641613C21.0638 0.629149 25.0549 0.637875 29.0461 0.636628C29.4686 0.614192 29.9311 0.82609 30.0694 1.24989C30.2813 1.74598 29.9498 2.37668 29.4213 2.48139C29.0498 2.55119 28.6696 2.51504 28.2945 2.52127C24.595 2.52127 20.8955 2.52003 17.196 2.52252C16.8457 2.47765 16.4942 2.75436 16.5129 3.11957C16.503 6.85521 16.5079 10.5908 16.5104 14.3265C16.4768 14.7079 16.8233 15.022 17.201 14.9672C29.5409 14.9709 41.8809 14.9709 54.2221 14.9672C54.5898 15.022 54.9363 14.7154 54.9064 14.3414C54.9101 10.5946 54.9163 6.84773 54.9039 3.10088C54.9188 2.74688 54.5648 2.47889 54.227 2.52252C47.4102 2.52003 40.5945 2.52127 33.7776 2.52252C33.4012 2.51504 33.0148 2.55617 32.6483 2.45147C32.1286 2.27198 31.8743 1.59266 32.166 1.1215C32.3529 0.76626 32.768 0.616685 33.1507 0.636628C39.9663 0.634135 46.7819 0.636627 53.5976 0.635381C54.1547 0.641613 54.7381 0.591756 55.2628 0.819858C56.1777 1.17635 56.8035 2.12864 56.7947 3.10711C56.801 6.88887 56.8072 10.6706 56.7923 14.4524C56.791 15.6963 55.7103 16.8219 54.4601 16.8431C52.2389 16.873 50.0165 16.8468 47.7941 16.8556C47.7941 22.5369 47.7941 28.217 47.7928 33.8984C48.4684 33.9109 49.149 33.8585 49.8208 33.962C51.0747 34.1739 52.1442 35.1635 52.4633 36.3938C52.8746 37.8185 52.1903 39.4576 50.8965 40.1756C50.3206 40.5121 49.6488 40.6455 48.9869 40.6343C33.8624 40.6343 18.7391 40.6343 3.61582 40.6343C2.88789 40.6517 2.15746 40.461 1.5467 40.0596C0.355082 39.2831 -0.225768 37.7126 0.181824 36.3477C0.524601 35.0825 1.67882 34.0903 2.98012 33.937C3.59712 33.8685 4.21786 33.9071 4.83735 33.8984C4.84109 24.6347 4.83112 15.3723 4.84233 6.10858C4.79746 4.54677 6.16109 3.13329 7.7229 3.12331C10.0201 3.09963 12.3186 3.12082 14.6171 3.11334ZM6.72947 6.22575C6.72698 15.4495 6.72823 24.6746 6.72947 33.8984C19.7874 33.8984 32.8453 33.8984 45.9044 33.8984C45.9107 28.2195 45.8907 22.5406 45.9144 16.8618C45.4233 16.8518 44.9322 16.8555 44.4423 16.8543C44.4436 21.4163 44.4486 25.9784 44.4398 30.5404C44.461 31.4827 43.8615 32.3976 42.9827 32.7429C42.5178 32.9473 42.0005 32.9099 41.5069 32.9137C31.1613 32.9087 20.817 32.9187 10.4713 32.9087C9.22862 32.9174 8.13797 31.7757 8.19157 30.5342C8.18409 23.2636 8.18534 15.993 8.19032 8.72241C8.13673 7.51957 9.14636 6.3828 10.3554 6.33544C11.7764 6.29555 13.1986 6.33045 14.6196 6.31923C14.6171 5.87923 14.6171 5.44048 14.6183 5.00173C12.356 5.0092 10.0924 4.99176 7.83134 5.00921C7.18692 4.99176 6.6684 5.59379 6.72947 6.22575ZM10.3392 8.21634C10.2058 8.35844 10.0463 8.50303 10.08 8.71991C10.075 15.9918 10.0737 23.2648 10.0812 30.5379C10.0401 30.8209 10.3118 31.0552 10.5848 31.029C21.0613 31.034 31.5365 31.0328 42.0117 31.029C42.3071 31.0764 42.5826 30.8259 42.5527 30.5267C42.5589 25.9697 42.5502 21.4114 42.5564 16.8543C34.0643 16.8531 25.5734 16.863 17.0826 16.8506C15.7925 16.888 14.6295 15.7512 14.627 14.4623C14.6058 12.3795 14.6245 10.2942 14.6183 8.21011C13.1911 8.21011 11.7652 8.20014 10.3392 8.21634ZM3.26556 35.8117C2.45163 35.874 1.80222 36.7042 1.97423 37.5094C2.07146 38.2897 2.86046 38.7882 3.60959 38.7521C18.7354 38.7546 33.8611 38.7533 48.9882 38.7521C49.66 38.7845 50.373 38.4318 50.5949 37.7649C50.8741 37.037 50.4615 36.1358 49.7186 35.8902C49.1988 35.7294 48.6491 35.788 48.1144 35.7793C33.3227 35.778 18.5309 35.7818 3.73922 35.778C3.58092 35.7756 3.42262 35.7868 3.26556 35.8117Z" fill="black"/>
</svg>
