<svg width="14" height="14" viewBox="0 0 14 14" fill="none" xmlns="http://www.w3.org/2000/svg">
<path d="M10.094 11.2823H2.59989V3.78823H7.41753V2.71764H2.59989C2.01106 2.71764 1.5293 3.1994 1.5293 3.78823V11.2823C1.5293 11.8712 2.01106 12.3529 2.59989 12.3529H10.094C10.6828 12.3529 11.1646 11.8712 11.1646 11.2823V6.4647H10.094V11.2823ZM5.92406 9.58546L4.87489 8.32217L3.40283 10.2118H9.29106L7.39612 7.69052L5.92406 9.58546ZM11.1646 2.71764V1.11176H10.094V2.71764H8.48812C8.49347 2.72299 8.48812 3.78823 8.48812 3.78823H10.094V5.38876C10.0994 5.39411 11.1646 5.38876 11.1646 5.38876V3.78823H12.7705V2.71764H11.1646Z" fill="#7B97BE"/>
</svg>
