<svg width="15" height="10" viewBox="0 0 15 10" fill="none" xmlns="http://www.w3.org/2000/svg">
<path d="M9.84775 9.68381H1.88525C1.63688 9.68356 1.39876 9.58479 1.22313 9.40916C1.04751 9.23354 0.948734 8.99541 0.948486 8.74704V1.25293C0.948734 1.00456 1.04751 0.766432 1.22313 0.590808C1.39876 0.415184 1.63688 0.31641 1.88525 0.316162H9.84775C10.0961 0.31641 10.3342 0.415184 10.5099 0.590808C10.6855 0.766432 10.7843 1.00456 10.7845 1.25293V3.15315L13.3227 1.34051C13.3927 1.29054 13.4751 1.26081 13.5609 1.25458C13.6467 1.24835 13.7325 1.26586 13.809 1.3052C13.8855 1.34453 13.9497 1.40417 13.9945 1.47757C14.0394 1.55097 14.0631 1.6353 14.0632 1.72131V8.27866C14.0632 8.36471 14.0395 8.4491 13.9947 8.52257C13.9499 8.59604 13.8857 8.65575 13.8092 8.69514C13.7327 8.73453 13.6468 8.75208 13.561 8.74587C13.4752 8.73966 13.3927 8.70992 13.3227 8.65993L10.7845 6.84729V8.74704C10.7843 8.99541 10.6855 9.23354 10.5099 9.40916C10.3342 9.58479 10.0961 9.68356 9.84775 9.68381ZM1.88525 1.25293V8.74751L9.84775 8.74704V5.93675C9.84774 5.8507 9.87144 5.76631 9.91624 5.69284C9.96105 5.61937 10.0252 5.55967 10.1017 5.52028C10.1782 5.48089 10.2641 5.46333 10.3499 5.46954C10.4358 5.47576 10.5182 5.50549 10.5883 5.55549L13.1264 7.36813V2.63184L10.5883 4.44448C10.5182 4.49448 10.4358 4.52422 10.3499 4.53043C10.2641 4.53664 10.1782 4.51909 10.1017 4.47969C10.0252 4.4403 9.96105 4.3806 9.91624 4.30713C9.87144 4.23366 9.84774 4.14927 9.84775 4.06322V1.25293H1.88525Z" fill="#7B97BE"/>
</svg>
